<svg xmlns="http://www.w3.org/2000/svg" viewBox="0 0 512 512">
  <defs>
    <linearGradient id="bg" x1="0%" y1="0%" x2="100%" y2="100%">
      <stop offset="0%" style="stop-color:#0f1419"/>
      <stop offset="100%" style="stop-color:#1a2332"/>
    </linearGradient>
    <linearGradient id="accent" x1="0%" y1="0%" x2="100%" y2="100%">
      <stop offset="0%" style="stop-color:#14b8a6"/>
      <stop offset="100%" style="stop-color:#0ea5e9"/>
    </linearGradient>
  </defs>
  
  <!-- Background -->
  <rect width="512" height="512" rx="80" fill="url(#bg)"/>
  
  <!-- Compass Circle -->
  <circle cx="256" cy="256" r="160" fill="none" stroke="url(#accent)" stroke-width="8" opacity="0.3"/>
  <circle cx="256" cy="256" r="120" fill="none" stroke="url(#accent)" stroke-width="4" opacity="0.5"/>
  
  <!-- Navigation Pin -->
  <path d="M256 80 L256 180 M256 332 L256 432 M80 256 L180 256 M332 256 L432 256" 
        stroke="url(#accent)" stroke-width="6" stroke-linecap="round" opacity="0.4"/>
  
  <!-- Location Pin -->
  <path d="M256 140 C200 140 160 180 160 230 C160 290 256 380 256 380 C256 380 352 290 352 230 C352 180 312 140 256 140Z" 
        fill="url(#accent)"/>
  
  <!-- Inner Circle -->
  <circle cx="256" cy="230" r="40" fill="#0f1419"/>
  <circle cx="256" cy="230" r="20" fill="url(#accent)" opacity="0.8"/>
  
  <!-- Building Silhouette -->
  <path d="M200 300 L200 360 L230 360 L230 330 L256 310 L282 330 L282 360 L312 360 L312 300 L256 270 Z" 
        fill="url(#accent)" opacity="0.6"/>
</svg>
